<svg id="Layer_1" data-name="Layer 1" xmlns="http://www.w3.org/2000/svg" viewBox="0 0 246.34 253.81"><defs><style>.cls-1{fill:#081c24;}</style></defs><title>PoweredBySquare_Blue</title><path class="cls-1" d="M3345.81,2236.34c14.6,0,24.48-9.88,24.48-24.48V2021.58c0-14.6-9.88-24.48-24.48-24.48H3148.44c-14.6,0-24.48,9.88-24.48,24.48v229.33l12.56-14.56h0V2021.58a11.94,11.94,0,0,1,11.92-11.92h197.37a11.94,11.94,0,0,1,11.92,11.92v190.28a11.94,11.94,0,0,1-11.92,11.92H3167.08l-12.56,12.56-0.08-.1" transform="translate(-3123.96 -1997.09)"/><polygon class="cls-1" points="61.38 108.29 68.32 108.29 68.32 80.52 76.96 80.52 76.96 73.63 52.74 73.63 52.74 80.52 61.38 80.52 61.38 108.29"/><polygon class="cls-1" points="99.53 108.29 106.47 108.29 106.47 73.58 99.53 73.58 99.53 87.46 89.14 87.46 89.14 73.58 82.2 73.58 82.2 108.29 89.14 108.29 89.14 94.4 99.53 94.4 99.53 108.29"/><polygon class="cls-1" points="132.25 101.34 119.23 101.34 119.23 94.4 130.35 94.4 130.35 87.46 119.23 87.46 119.23 80.52 131.66 80.52 131.66 73.58 112.28 73.58 112.28 108.29 132.25 108.29 132.25 101.34"/><polygon class="cls-1" points="68.66 132.35 54.97 117.11 52.74 117.11 52.74 152.35 59.78 152.35 59.78 132.99 68.66 142.3 77.54 132.99 77.5 152.35 84.53 152.35 84.53 117.11 82.35 117.11 68.66 132.35"/><path class="cls-1" d="M3232,2114.16c-23.88,0-23.88,35.77,0,35.77S3255.88,2114.16,3232,2114.16Zm0,28.59c-13.88,0-13.88-21.45,0-21.45S3245.88,2142.75,3232,2142.75Z" transform="translate(-3123.96 -1997.09)"/><rect class="cls-1" x="165.37" y="117.65" width="6.94" height="34.7"/><polygon class="cls-1" points="185.07 145.41 185.07 138.47 196.19 138.47 196.19 131.53 185.07 131.53 185.07 124.59 197.5 124.59 197.5 117.65 178.13 117.65 178.13 152.35 198.09 152.35 198.09 145.41 185.07 145.41"/><path class="cls-1" d="M3187,2158.81H3176.7v34.7H3187C3210.14,2193.51,3210.14,2158.81,3187,2158.81Zm0,27.76h-3.4v-20.82h3.4C3200.53,2165.75,3200.53,2186.57,3187,2186.57Z" transform="translate(-3123.96 -1997.09)"/><path class="cls-1" d="M3230.25,2176.13c2.18-1.5,3.11-4.22,3.2-6.84,0.15-6.12-3.69-10.53-9.85-10.53h-13.74v34.75h13.74a10.32,10.32,0,0,0,10.24-10.44A8.43,8.43,0,0,0,3230.25,2176.13Zm-13.4-10.44H3223a3.51,3.51,0,0,1,0,7h-6.17v-7Zm6.17,20.87h-6.17v-6.94H3223a3.41,3.41,0,0,1,3.49,3.45A3.45,3.45,0,0,1,3223,2186.57Z" transform="translate(-3123.96 -1997.09)"/><polygon class="cls-1" points="144.01 136.38 134.87 117.65 126.86 117.65 143.23 153.08 144.79 153.08 161.15 117.65 153.14 117.65 144.01 136.38"/><path class="cls-1" d="M3176.4,2055.28v-15h5.9c5.84,0,5.82,9.26,0,9.26h-2.9v5.73h-3Zm5.65-8.65c2,0,2-3.36,0-3.36h-2.65v3.36H3182Z" transform="translate(-3123.96 -1997.09)"/><path class="cls-1" d="M3198.17,2040c10.33,0,10.33,15.47,0,15.47S3187.84,2040,3198.17,2040Zm0,3.09c-6,0-6,9.28,0,9.28S3204.18,2043.1,3198.17,2043.1Z" transform="translate(-3123.96 -1997.09)"/><path class="cls-1" d="M3215.22,2055.6l-6.15-15.33h3.38l3,7.66,2.94-7.52h0.15l2.94,7.52,3-7.66h3.38l-6.13,15.26h-0.55l-2.75-6.66-2.73,6.72h-0.53Z" transform="translate(-3123.96 -1997.09)"/><path class="cls-1" d="M3231.63,2055.28v-15h7.52v3h-4.51v3h3.95v3h-3.95v3h4.77v3h-7.77Z" transform="translate(-3123.96 -1997.09)"/><path class="cls-1" d="M3251.58,2055.28l-3-5.73h-1.45v5.73h-3v-15H3250c5.35,0,5.88,7.54,1.47,8.82l3.49,6.19h-3.4Zm-4.47-8.65h2.64c2,0,2-3.36,0-3.36h-2.64v3.36Z" transform="translate(-3123.96 -1997.09)"/><path class="cls-1" d="M3258.86,2055.28v-15h7.52v3h-4.51v3h3.95v3h-3.95v3h4.77v3h-7.77Z" transform="translate(-3123.96 -1997.09)"/><path class="cls-1" d="M3275.81,2055.28h-4.47v-15h4.47C3285.8,2040.27,3285.8,2055.28,3275.81,2055.28Zm-1.47-12v9h1.47c5.84,0,5.84-9,0-9h-1.47Z" transform="translate(-3123.96 -1997.09)"/><path class="cls-1" d="M3314,2048.52l-5.23-8.25h3.65l3.07,5.16,3.07-5.16h3.67l-5.25,8.25v6.76h-3v-6.76Z" transform="translate(-3123.96 -1997.09)"/><path class="cls-1" d="M3304.68,2047.76a3.68,3.68,0,0,0,1.39-3,4.13,4.13,0,0,0-4.26-4.56h-5.94v15h5.94a4.46,4.46,0,0,0,4.43-4.51A3.65,3.65,0,0,0,3304.68,2047.76Zm-5.79-4.51h2.67a1.52,1.52,0,0,1,0,3h-2.67v-3Zm2.67,9h-2.67v-3h2.67a1.47,1.47,0,0,1,1.51,1.49A1.49,1.49,0,0,1,3301.56,2052.28Z" transform="translate(-3123.96 -1997.09)"/></svg>